<svg width="20" height="20" viewBox="0 0 20 20" fill="none" xmlns="http://www.w3.org/2000/svg">
<path fill-rule="evenodd" clip-rule="evenodd" d="M7.57622 12.4237C7.15758 12.5118 6.72375 12.5581 6.27907 12.5581C2.81395 12.5581 0 9.74419 0 6.27907C0 2.81395 2.81395 0 6.27907 0C9.74419 0 12.5581 2.81395 12.5581 6.27907C12.5581 6.72376 12.5118 7.15761 12.4236 7.57625C12.8423 7.48815 13.2762 7.44181 13.7208 7.44181C17.186 7.44181 19.9999 10.2558 19.9999 13.7209C19.9999 17.186 17.186 20 13.7208 20C10.2557 20 7.44177 17.186 7.44177 13.7209C7.44177 13.2762 7.48811 12.8423 7.57622 12.4237ZM8.17177 10.782C7.58954 11.0272 6.94995 11.1628 6.27907 11.1628C3.58326 11.1628 1.39535 8.97488 1.39535 6.27907C1.39535 3.58326 3.58326 1.39535 6.27907 1.39535C8.97489 1.39535 11.1628 3.58326 11.1628 6.27907C11.1628 6.94996 11.0272 7.58956 10.782 8.17179C9.6729 8.76095 8.76094 9.67291 8.17177 10.782ZM3.27449 6.77215C3.00193 6.50052 3.00193 6.05773 3.27449 5.7861C3.54612 5.51355 3.98891 5.51355 4.26053 5.7861L5.44193 6.96657L8.29774 4.11169C8.56937 3.83913 9.01216 3.83913 9.28379 4.11169C9.55635 4.38331 9.55635 4.8261 9.28379 5.09773L5.93495 8.44657C5.6624 8.71913 5.22146 8.71913 4.94891 8.44657L3.27449 6.77215ZM8.83712 13.7209C8.83712 11.0251 11.025 8.83716 13.7208 8.83716C16.4167 8.83716 18.6046 11.0251 18.6046 13.7209C18.6046 16.4167 16.4167 18.6046 13.7208 18.6046C11.025 18.6046 8.83712 16.4167 8.83712 13.7209ZM12.5397 15.8884C12.2681 16.1609 11.8253 16.1609 11.5537 15.8884C11.2811 15.6168 11.2811 15.174 11.5537 14.9023L12.7351 13.7209L11.5537 12.5395C11.2811 12.2679 11.2811 11.8251 11.5537 11.5535C11.8253 11.2809 12.2681 11.2809 12.5397 11.5535L13.7211 12.7349L14.9025 11.5535C15.1741 11.2809 15.6169 11.2809 15.8885 11.5535C16.1611 11.8251 16.1611 12.2679 15.8885 12.5395L14.7072 13.7209L15.8885 14.9023C16.1611 15.174 16.1611 15.6168 15.8885 15.8884C15.6169 16.1609 15.1741 16.1609 14.9025 15.8884L13.7211 14.707L12.5397 15.8884Z" fill="#4FD1C5"/>
</svg>
