<svg width="60" height="60" viewBox="0 0 60 60" fill="none" xmlns="http://www.w3.org/2000/svg">
<rect width="60" height="60" rx="20" fill="white"/>
<g clip-path="url(#clip0_301_1588)">
<path d="M23.219 43.5H18.7936C18.2599 43.5 17.938 43.2022 17.7936 43.0246C17.5444 42.718 17.4478 42.319 17.5289 41.9297C18.8269 35.6946 24.3294 31.1412 30.6817 30.9934C30.7875 30.9974 30.8936 31 31.0002 31C31.1079 31 31.2149 30.9973 31.3216 30.9933C32.8749 31.0287 34.3922 31.3208 35.8364 31.8631C36.4826 32.1059 37.2033 31.7786 37.446 31.1323C37.6887 30.4861 37.3615 29.7654 36.7152 29.5227C36.5082 29.4449 36.2999 29.3722 36.0905 29.3032C38.1593 27.7513 39.5002 25.2793 39.5002 22.5C39.5002 17.8131 35.6872 14 31.0002 14C26.3133 14 22.5002 17.8131 22.5002 22.5C22.5002 25.2818 23.8435 27.7557 25.9154 29.3074C24.0172 29.9323 22.236 30.904 20.6771 32.1863C17.8189 34.5373 15.8316 37.8166 15.0814 41.4202C14.8462 42.5493 15.1279 43.7091 15.8541 44.6019C16.5766 45.4904 17.648 46 18.7936 46H23.219C23.9094 46 24.469 45.4404 24.469 44.75C24.469 44.0596 23.9094 43.5 23.219 43.5ZM25.0002 22.5C25.0002 19.1916 27.6918 16.5 31.0002 16.5C34.3087 16.5 37.0002 19.1916 37.0002 22.5C37.0002 25.7104 34.4656 28.3399 31.2924 28.4928C31.1951 28.4911 31.0977 28.4896 31.0002 28.4896C30.9025 28.4896 30.8048 28.491 30.7072 28.4928C27.5344 28.3394 25.0002 25.7101 25.0002 22.5Z" fill="#272D4C"/>
<path d="M46.0431 35.5379C45.508 34.3411 44.3027 33.5656 42.9696 33.5625H39.0713C39.0685 33.5625 39.0659 33.5625 39.063 33.5625C37.6567 33.5625 36.4299 34.3913 35.9362 35.6754C35.8705 35.8463 35.7902 36.0616 35.7064 36.3125H27.5222C27.1843 36.3125 26.8608 36.4493 26.6254 36.6917L24.4781 38.9035C24.0052 39.3906 24.0076 40.1662 24.4834 40.6504L26.6709 42.8761C26.9059 43.1153 27.2272 43.2499 27.5624 43.2499H31.6249C32.3153 43.2499 32.8749 42.6903 32.8749 41.9999C32.8749 41.3096 32.3153 40.7499 31.6249 40.7499H28.0866L27.1223 39.7688L28.0509 38.8125H36.6441C37.2199 38.8125 37.7212 38.4191 37.8582 37.8598C37.9593 37.4468 38.0862 37.0498 38.2697 36.5725C38.3907 36.2578 38.6946 36.0625 39.066 36.0625C39.0668 36.0625 39.0676 36.0625 39.0684 36.0625H42.9666C43.3201 36.0633 43.6244 36.2533 43.7607 36.5583C44.0962 37.309 44.4969 38.4713 44.4999 39.7449C44.5029 41.0279 44.1027 42.2168 43.7662 42.9883C43.6306 43.2994 43.3238 43.5 42.9812 43.5C42.9806 43.5 42.9799 43.5 42.9792 43.5H39.0339C38.6881 43.4992 38.3641 43.2767 38.2279 42.9464C38.0817 42.5919 37.955 42.1873 37.8406 41.7091C37.6799 41.0377 37.0051 40.6237 36.334 40.7843C35.6626 40.945 35.2486 41.6196 35.4092 42.2909C35.5543 42.8971 35.7204 43.4233 35.9168 43.8996C36.4417 45.1723 37.663 45.9967 39.031 45.9999H42.9763C42.979 45.9999 42.9815 45.9999 42.9842 45.9999C44.3186 45.9999 45.5246 45.2106 46.0579 43.9874C46.4899 42.9967 47.004 41.4554 46.9999 39.7389C46.9959 38.0271 46.4774 36.5096 46.0431 35.5379Z" fill="#272D4C"/>
<path d="M41.9375 41C42.6279 41 43.1875 40.4404 43.1875 39.75C43.1875 39.0596 42.6279 38.5 41.9375 38.5C41.2471 38.5 40.6875 39.0596 40.6875 39.75C40.6875 40.4404 41.2471 41 41.9375 41Z" fill="#272D4C"/>
</g>
<defs>
<clipPath id="clip0_301_1588">
<rect width="32" height="32" fill="white" transform="translate(15 14)"/>
</clipPath>
</defs>
</svg>
