<svg width="60" height="60" viewBox="0 0 60 60" fill="none" xmlns="http://www.w3.org/2000/svg">
<rect width="60" height="60" rx="20" fill="white"/>
<path d="M34.1584 19.0626L35.9253 17.2948L39.0486 20.4198L44.2332 15.2321L46 16.9999L39.0486 23.9552L34.1584 19.0626ZM44.0864 22.4502C45.3247 24.7505 45.9822 27.3355 45.9822 30.0217C45.9822 34.2956 44.3188 38.3134 41.2986 41.3356C38.2783 44.3575 34.2625 46 29.9912 46C25.7197 46 21.7041 44.3575 18.6836 41.3356C15.6633 38.3134 14 34.2956 14 30.0217C14 25.7482 15.6633 21.7301 18.6836 18.7082C21.7041 15.6862 25.7197 14 29.9912 14C31.6824 14 33.3333 14.2838 34.8984 14.7866L32.8569 16.8294C31.9329 16.6286 30.9744 16.5219 29.9912 16.5219C22.5513 16.5219 16.4985 22.578 16.4985 30.0217C16.4985 33.4272 17.7661 36.5419 19.8528 38.9195C20.5789 35.6689 22.8303 32.9885 25.8137 31.6721C24.5681 30.5357 23.7852 28.8998 23.7852 27.0843C23.7852 23.6606 26.5691 20.8749 29.9912 20.8749C33.4131 20.8749 36.197 23.6603 36.197 27.0843C36.197 28.8998 35.4143 30.5357 34.1687 31.6721C37.1519 32.9885 39.4036 35.6689 40.1294 38.9195C42.2163 36.5417 43.4836 33.4272 43.4836 30.0217C43.4836 27.985 43.0295 26.0523 42.2188 24.3189L44.0864 22.4502ZM29.9912 30.7936C32.0354 30.7936 33.6985 29.1297 33.6985 27.0843C33.6985 25.0388 32.0354 23.3748 29.9912 23.3748C27.9468 23.3748 26.2837 25.0388 26.2837 27.0843C26.2837 29.1297 27.9468 30.7936 29.9912 30.7936ZM29.9912 43.5218C32.9331 43.5218 35.6577 42.574 37.8774 40.9687C37.7612 36.7168 34.2683 33.2936 29.9912 33.2936C25.7141 33.2936 22.2209 36.7168 22.105 40.9687C24.3247 42.574 27.0491 43.5218 29.9912 43.5218Z" fill="#272D4C"/>
</svg>
