<svg width="60" height="60" viewBox="0 0 60 60" fill="none" xmlns="http://www.w3.org/2000/svg">
<rect width="60" height="60" rx="20" fill="white"/>
<path d="M29.5 20.394C30.7134 20.394 31.697 19.4104 31.697 18.197C31.697 16.9836 30.7134 16 29.5 16C28.2867 16 27.303 16.9836 27.303 18.197C27.303 19.4104 28.2867 20.394 29.5 20.394Z" stroke="#272D4C" stroke-width="2" stroke-miterlimit="10" stroke-linecap="round" stroke-linejoin="round"/>
<path d="M29.5 28.0036C30.7134 28.0036 31.697 27.02 31.697 25.8066C31.697 24.5932 30.7134 23.6096 29.5 23.6096C28.2867 23.6096 27.303 24.5932 27.303 25.8066C27.303 27.02 28.2867 28.0036 29.5 28.0036Z" stroke="#272D4C" stroke-width="2" stroke-miterlimit="10" stroke-linecap="round" stroke-linejoin="round"/>
<path d="M29.5 44.706C30.7134 44.706 31.697 43.7224 31.697 42.509C31.697 41.2956 30.7134 40.312 29.5 40.312C28.2867 40.312 27.303 41.2956 27.303 42.509C27.303 43.7224 28.2867 44.706 29.5 44.706Z" stroke="#272D4C" stroke-width="2" stroke-miterlimit="10" stroke-linecap="round" stroke-linejoin="round"/>
<path d="M16.197 40.6787C17.4104 40.6787 18.394 39.695 18.394 38.4817C18.394 37.2683 17.4104 36.2847 16.197 36.2847C14.9836 36.2847 14 37.2683 14 38.4817C14 39.695 14.9836 40.6787 16.197 40.6787Z" stroke="#272D4C" stroke-width="2" stroke-miterlimit="10" stroke-linecap="round" stroke-linejoin="round"/>
<path d="M16.197 24.8908C17.4104 24.8908 18.394 23.9072 18.394 22.6938C18.394 21.4805 17.4104 20.4968 16.197 20.4968C14.9836 20.4968 14 21.4805 14 22.6938C14 23.9072 14.9836 24.8908 16.197 24.8908Z" stroke="#272D4C" stroke-width="2" stroke-miterlimit="10" stroke-linecap="round" stroke-linejoin="round"/>
<path d="M42.8031 24.6906C44.0164 24.6906 45.0001 23.707 45.0001 22.4936C45.0001 21.2803 44.0164 20.2966 42.8031 20.2966C41.5897 20.2966 40.6061 21.2803 40.6061 22.4936C40.6061 23.707 41.5897 24.6906 42.8031 24.6906Z" stroke="#272D4C" stroke-width="2" stroke-miterlimit="10" stroke-linecap="round" stroke-linejoin="round"/>
<path d="M42.8031 40.1877C44.0164 40.1877 45.0001 39.2041 45.0001 37.9907C45.0001 36.7773 44.0164 35.7937 42.8031 35.7937C41.5897 35.7937 40.6061 36.7773 40.6061 37.9907C40.6061 39.2041 41.5897 40.1877 42.8031 40.1877Z" stroke="#272D4C" stroke-width="2" stroke-miterlimit="10" stroke-linecap="round" stroke-linejoin="round"/>
<path d="M18.3939 21.7841L27.4091 18.8723" stroke="#272D4C" stroke-width="2" stroke-miterlimit="10" stroke-linecap="round" stroke-linejoin="round"/>
<path d="M40.7892 21.6148L31.6029 18.8337" stroke="#272D4C" stroke-width="2" stroke-miterlimit="10" stroke-linecap="round" stroke-linejoin="round"/>
<path d="M29.4999 39.9058V28.3486" stroke="#272D4C" stroke-width="2" stroke-miterlimit="10" stroke-linecap="round" stroke-linejoin="round"/>
<path d="M40.7892 39.0911L31.9269 41.774" stroke="#272D4C" stroke-width="2" stroke-miterlimit="10" stroke-linecap="round" stroke-linejoin="round"/>
<path d="M42.8029 24.8909V35.4165" stroke="#272D4C" stroke-width="2" stroke-miterlimit="10" stroke-linecap="round" stroke-linejoin="round"/>
<path d="M32.1342 25.7237L40.6059 23.1589" stroke="#272D4C" stroke-width="2" stroke-miterlimit="10" stroke-linecap="round" stroke-linejoin="round"/>
<path d="M16.1971 35.9109V25.3423" stroke="#272D4C" stroke-width="2" stroke-miterlimit="10" stroke-linecap="round" stroke-linejoin="round"/>
<path d="M27.3968 41.8722L18.8414 39.2822" stroke="#272D4C" stroke-width="2" stroke-miterlimit="10" stroke-linecap="round" stroke-linejoin="round"/>
<path d="M29.4999 28.3486V39.9058" stroke="#272D4C" stroke-width="2" stroke-miterlimit="10" stroke-linecap="round" stroke-linejoin="round"/>
<path d="M18.6111 23.2246L26.9839 25.7593" stroke="#272D4C" stroke-width="2" stroke-miterlimit="10" stroke-linecap="round" stroke-linejoin="round"/>
</svg>
