<svg width="18" height="18" viewBox="0 0 18 18" fill="none" xmlns="http://www.w3.org/2000/svg">
<g clip-path="url(#clip0_474_10)">
<path fill-rule="evenodd" clip-rule="evenodd" d="M1.31245 6.00005H6.93745C7.66132 6.00005 8.25005 5.41132 8.25005 4.68745V1.31245C8.25005 0.58873 7.66132 0 6.93745 0H1.31245C0.58873 0 0 0.58873 0 1.31245V4.68745C0 5.41132 0.58873 6.00005 1.31245 6.00005ZM1.125 1.31245C1.125 1.20905 1.20905 1.125 1.31245 1.125H6.93745C7.041 1.125 7.12505 1.20905 7.12505 1.31245V4.68745C7.12505 4.791 7.041 4.87505 6.93745 4.87505H1.31245C1.20905 4.87505 1.125 4.791 1.125 4.68745V1.31245ZM1.31245 18H6.93745C7.66132 18 8.25005 17.4113 8.25005 16.6875V8.81255C8.25005 8.08868 7.66132 7.49995 6.93745 7.49995H1.31245C0.58873 7.49995 0 8.08868 0 8.81255V16.6875C0 17.4113 0.58873 18 1.31245 18ZM1.125 8.81255C1.125 8.709 1.20905 8.62495 1.31245 8.62495H6.93745C7.041 8.62495 7.12505 8.709 7.12505 8.81255V16.6875C7.12505 16.791 7.041 16.875 6.93745 16.875H1.31245C1.20905 16.875 1.125 16.791 1.125 16.6875V8.81255ZM16.6876 18H11.0626C10.3387 18 9.75 17.4113 9.75 16.6875V13.3125C9.75 12.5887 10.3387 12 11.0626 12H16.6876C17.4113 12 18 12.5887 18 13.3125V16.6875C18 17.4113 17.4113 18 16.6876 18ZM11.0626 13.125C10.959 13.125 10.875 13.209 10.875 13.3125V16.6875C10.875 16.791 10.959 16.875 11.0626 16.875H16.6876C16.791 16.875 16.875 16.791 16.875 16.6875V13.3125C16.875 13.209 16.791 13.125 16.6876 13.125H11.0626ZM11.2126 10.5H16.8376C17.5613 10.5 18.15 9.91132 18.15 9.18745V1.31245C18.15 0.58873 17.5613 0 16.8376 0H11.2126C10.4887 0 9.9 0.58873 9.9 1.31245V9.18745C9.9 9.91132 10.4887 10.5 11.2126 10.5ZM11.025 1.31245C11.025 1.20905 11.109 1.125 11.2126 1.125H16.8376C16.941 1.125 17.025 1.20905 17.025 1.31245V9.18745C17.025 9.291 16.941 9.37505 16.8376 9.37505H11.2126C11.109 9.37505 11.025 9.291 11.025 9.18745V1.31245Z" fill="#60D5CA"/>
</g>
<defs>
<clipPath id="clip0_474_10">
<rect width="18" height="18" fill="white"/>
</clipPath>
</defs>
</svg>
