<svg width="20" height="20" viewBox="0 0 20 20" fill="none" xmlns="http://www.w3.org/2000/svg">
<g clip-path="url(#clip0_474_19)">
<path d="M20 10.3125C20 12.6172 18.125 14.4922 15.8203 14.4922H13.9062V12.9297H15.8203C17.2635 12.9297 18.4375 11.7557 18.4375 10.3125C18.4375 8.86932 17.2635 7.69531 15.8203 7.69531H14.7266V6.32812C14.7266 3.70041 12.5887 1.5625 9.96094 1.5625C7.50839 1.5625 5.47043 3.3992 5.22049 5.83496L5.15411 6.48209L4.50577 6.53397C2.85538 6.66611 1.5625 8.06839 1.5625 9.72656C1.5625 11.3605 2.79251 12.7364 4.375 12.9297H6.09375V14.4922H4.375C1.92932 14.2928 0 12.2227 0 9.72656C0 8.52081 0.451355 7.37015 1.27075 6.48666C1.94153 5.7634 2.80869 5.27206 3.75854 5.0679C4.02451 3.75381 4.70337 2.55432 5.70831 1.642C6.87439 0.583191 8.3847 0 9.96094 0C13.3937 0 16.1967 2.74734 16.2868 6.1586C18.3728 6.39145 20 8.16544 20 10.3125ZM13.9062 9.64844C13.9062 10.8809 13.3176 12.0398 12.3438 12.7724V17.9741L10.3685 20H9.58649L7.65625 17.9681V12.7724C6.68243 12.0398 6.09375 10.8809 6.09375 9.64844C6.09375 7.49451 7.84607 5.74219 10 5.74219C12.1539 5.74219 13.9062 7.49451 13.9062 9.64844ZM12.3438 9.64844C12.3438 8.35602 11.2924 7.30469 10 7.30469C8.70758 7.30469 7.65625 8.35602 7.65625 9.64844C7.65625 10.4819 8.10562 11.2596 8.82889 11.6782L9.21875 11.9038V14.0733L10.293 15.2042L9.21875 16.2247V17.3444L9.98703 18.1531L10.7812 17.3384V11.9038L11.1711 11.6782C11.8944 11.2596 12.3438 10.4819 12.3438 9.64844ZM10 8.08594C9.56848 8.08594 9.21875 8.43567 9.21875 8.86719C9.21875 9.29871 9.56848 9.64844 10 9.64844C10.4315 9.64844 10.7812 9.29871 10.7812 8.86719C10.7812 8.43567 10.4315 8.08594 10 8.08594Z" fill="white"/>
</g>
<defs>
<clipPath id="clip0_474_19">
<rect width="20" height="20" fill="white"/>
</clipPath>
</defs>
</svg>
