<svg width="20" height="20" viewBox="0 0 20 20" fill="none" xmlns="http://www.w3.org/2000/svg">
<path fill-rule="evenodd" clip-rule="evenodd" d="M2.82051 20H17.1795C17.9274 19.9995 18.6445 19.7298 19.1733 19.2502C19.7021 18.7706 19.9995 18.1202 20 17.4419V2.55814C19.9995 1.87983 19.7021 1.22944 19.1733 0.749806C18.6445 0.270169 17.9274 0.000492779 17.1795 0H2.82051C2.07263 0.000492779 1.35554 0.270169 0.826709 0.749806C0.297878 1.22944 0.00054332 1.87983 0 2.55814V17.4419C0.00054332 18.1202 0.297878 18.7706 0.826709 19.2502C1.35554 19.7298 2.07263 19.9995 2.82051 20ZM1.91456 1.73647C2.15488 1.51851 2.48066 1.39584 2.82051 1.39535H17.1795C17.5193 1.39584 17.8451 1.51851 18.0854 1.73647C18.3258 1.95442 18.461 2.2499 18.4615 2.55814V17.4419C18.461 17.7501 18.3258 18.0456 18.0854 18.2635C17.8451 18.4815 17.5193 18.6042 17.1795 18.6047H2.82051C2.48066 18.6042 2.15488 18.4815 1.91456 18.2635C1.67425 18.0456 1.539 17.7501 1.53846 17.4419V2.55814C1.539 2.2499 1.67425 1.95442 1.91456 1.73647ZM9.98084 8.37211L9.99994 8.37216L10.0177 8.37209C10.6234 8.37626 11.2033 8.5963 11.6319 8.98507C12.0647 9.37758 12.3078 9.90995 12.3078 10.4651C12.3078 10.6501 12.3889 10.8275 12.5331 10.9584C12.6774 11.0892 12.873 11.1627 13.077 11.1627C13.2811 11.1627 13.4767 11.0892 13.621 10.9584C13.7652 10.8275 13.8463 10.6501 13.8463 10.4651C13.8463 9.53988 13.4411 8.6526 12.7198 7.9984C12.5615 7.85485 12.3908 7.7251 12.2101 7.61001C12.2599 7.56997 12.3085 7.52849 12.3558 7.48558C12.9806 6.91882 13.3322 6.15041 13.3333 5.3489C13.3333 4.75096 13.1378 4.16644 12.7715 3.66927C12.4052 3.1721 11.8846 2.7846 11.2756 2.55578C10.6665 2.32695 9.99624 2.26708 9.34964 2.38374C8.70304 2.50039 8.10909 2.78833 7.64292 3.21114C7.17674 3.63395 6.85927 4.17264 6.73066 4.75909C6.60204 5.34555 6.66805 5.95342 6.92034 6.50585C7.11442 6.9308 7.41201 7.30826 7.78854 7.61104C7.60839 7.72588 7.43829 7.85528 7.28048 7.9984C6.55919 8.6526 6.15397 9.53988 6.15397 10.4651C6.15397 10.6501 6.23502 10.8275 6.37927 10.9584C6.52353 11.0892 6.71919 11.1627 6.9232 11.1627C7.12721 11.1627 7.32287 11.0892 7.46713 10.9584C7.61139 10.8275 7.69243 10.6501 7.69243 10.4651C7.69243 9.90995 7.93556 9.37758 8.36834 8.98507C8.79657 8.59667 9.37577 8.37669 9.98084 8.37211ZM10.0182 6.97672L10.0001 6.97668L9.98173 6.97672C9.87077 6.9757 9.75964 6.96535 9.64978 6.94553C9.30161 6.88271 8.98179 6.72767 8.73077 6.5C8.47976 6.27234 8.30881 5.98227 8.23956 5.66649C8.1703 5.35071 8.20585 5.02339 8.3417 4.72593C8.47754 4.42847 8.7076 4.17422 9.00276 3.99534C9.29793 3.81647 9.64495 3.72099 9.99994 3.72099C10.4758 3.72149 10.932 3.89315 11.2685 4.19834C11.605 4.50352 11.7943 4.9173 11.7948 5.3489C11.7948 5.67087 11.6895 5.98561 11.4923 6.25332C11.2951 6.52102 11.0148 6.72968 10.6868 6.85289C10.4737 6.93296 10.2467 6.97461 10.0182 6.97672ZM5.38471 13.9535H14.6155C14.8195 13.9535 15.0151 13.88 15.1594 13.7492C15.3037 13.6183 15.3847 13.4409 15.3847 13.2558C15.3847 13.0708 15.3037 12.8933 15.1594 12.7625C15.0151 12.6317 14.8195 12.5581 14.6155 12.5581H5.38471C5.1807 12.5581 4.98504 12.6317 4.84078 12.7625C4.69652 12.8933 4.61548 13.0708 4.61548 13.2558C4.61548 13.4409 4.69652 13.6183 4.84078 13.7492C4.98504 13.88 5.1807 13.9535 5.38471 13.9535ZM5.38471 16.7442H14.6155C14.8195 16.7442 15.0151 16.6707 15.1594 16.5399C15.3037 16.409 15.3847 16.2316 15.3847 16.0466C15.3847 15.8615 15.3037 15.6841 15.1594 15.5532C15.0151 15.4224 14.8195 15.3489 14.6155 15.3489H5.38471C5.1807 15.3489 4.98504 15.4224 4.84078 15.5532C4.69652 15.6841 4.61548 15.8615 4.61548 16.0466C4.61548 16.2316 4.69652 16.409 4.84078 16.5399C4.98504 16.6707 5.1807 16.7442 5.38471 16.7442Z" fill="#4FD1C5"/>
</svg>
