<svg width="20" height="20" viewBox="0 0 20 20" fill="none" xmlns="http://www.w3.org/2000/svg">
<path d="M0.000589442 14.0871C-0.000475662 14.2077 0.0300697 14.3264 0.0891036 14.4311C0.148138 14.5358 0.233543 14.6228 0.336591 14.6831L9.664 19.9145C9.76373 19.9706 9.87588 20 9.98992 20C10.104 20 10.2161 19.9706 10.3158 19.9145L19.6533 14.6831C19.7584 14.6242 19.8459 14.5378 19.9069 14.433C19.9678 14.3282 20 14.2087 20 14.0871C20 13.9654 19.9678 13.8459 19.9069 13.7411C19.8459 13.6363 19.7584 13.5499 19.6533 13.491L17.0728 12.0435L19.6533 10.596C19.7584 10.5371 19.8459 10.4508 19.9069 10.346C19.9678 10.2411 20 10.1217 20 10C20 9.87832 19.9678 9.75886 19.9069 9.65405C19.8459 9.54923 19.7584 9.46288 19.6533 9.40397L17.0728 7.95647L19.6533 6.50897C19.7584 6.45006 19.8459 6.36371 19.9069 6.2589C19.9678 6.15408 20 6.03462 20 5.91294C20 5.79126 19.9678 5.67181 19.9069 5.56699C19.8459 5.46217 19.7584 5.37582 19.6533 5.31691L10.336 0.085478C10.2363 0.0294157 10.1241 0 10.0101 0C9.89604 0 9.78389 0.0294157 9.68416 0.085478L0.346671 5.31691C0.241636 5.37582 0.154085 5.46217 0.0931196 5.56699C0.0321542 5.67181 0 5.79126 0 5.91294C0 6.03462 0.0321542 6.15408 0.0931196 6.2589C0.154085 6.36371 0.241636 6.45006 0.346671 6.50897L2.94396 7.95647L0.346671 9.40397C0.241636 9.46288 0.154085 9.54923 0.0931196 9.65405C0.0321542 9.75886 0 9.87832 0 10C0 10.1217 0.0321542 10.2411 0.0931196 10.346C0.154085 10.4508 0.241636 10.5371 0.346671 10.596L2.94396 12.0435L0.346671 13.491C0.241746 13.55 0.154314 13.6364 0.0934551 13.7412C0.0325965 13.846 0.000531158 13.9654 0.000589442 14.0871ZM2.06028 5.91294L10 1.46145L17.9397 5.91294L10 10.3644L2.06028 5.91294ZM2.06028 10L4.31485 8.73642L9.69088 11.7404C9.79061 11.7965 9.90277 11.8259 10.0168 11.8259C10.1308 11.8259 10.243 11.7965 10.3427 11.7404L15.7187 8.73642L17.9733 10L10 14.4515L2.06028 10ZM4.31485 12.8235L9.69088 15.8275C9.79061 15.8835 9.90277 15.9129 10.0168 15.9129C10.1308 15.9129 10.243 15.8835 10.3427 15.8275L15.7187 12.8235L17.9733 14.0871L10 18.5385L2.06028 14.0871L4.31485 12.8235Z" fill="white"/>
</svg>
