<svg width="20" height="20" viewBox="0 0 20 20" fill="none" xmlns="http://www.w3.org/2000/svg">
<path d="M13.5633 9.27363C15.0757 8.34031 16.0606 6.82984 16.0606 5.1282C16.0606 2.30051 13.3418 0 10 0C6.65817 0 3.93939 2.30051 3.93939 5.1282C3.93939 6.82984 4.92422 8.34031 6.43667 9.27363C2.67701 10.491 0 13.5754 0 17.1795C0 18.7347 1.49533 20 3.33333 20H16.6667C18.5047 20 20 18.7347 20 17.1795C20 13.5754 17.323 10.491 13.5633 9.27363ZM5.75759 5.1282C5.75759 3.14883 7.66073 1.53848 10 1.53848C12.3393 1.53848 14.2424 3.14883 14.2424 5.1282C14.2424 7.10758 12.3393 8.71797 10 8.71797C7.66073 8.71797 5.75759 7.10758 5.75759 5.1282ZM16.6667 18.4615H3.33333C2.49789 18.4615 1.8182 17.8864 1.8182 17.1795C1.8182 13.362 5.48849 10.2564 10 10.2564C14.5116 10.2564 18.1819 13.362 18.1819 17.1795C18.1818 17.8864 17.5022 18.4615 16.6667 18.4615Z" fill="white"/>
</svg>
