<svg width="20" height="20" viewBox="0 0 20 20" fill="none" xmlns="http://www.w3.org/2000/svg">
<mask id="mask0_474_49" style="mask-type:luminance" maskUnits="userSpaceOnUse" x="0" y="0" width="20" height="20">
<path d="M19.25 19.25V0.750002H0.75V19.25H19.25Z" fill="white" stroke="white" stroke-width="1.5"/>
</mask>
<g mask="url(#mask0_474_49)">
<path fill-rule="evenodd" clip-rule="evenodd" d="M0.444113 14.6406C0.238296 15.7992 1.12405 16.8796 2.30855 16.8796H11.9629C13.1475 16.8796 14.0331 15.7991 13.8273 14.6407L13.8273 14.6406C13.809 14.5372 13.7883 14.4346 13.7655 14.3328H18.5197C19.5793 14.3328 20.3689 13.3673 20.1854 12.3342C19.8917 10.6805 18.8787 9.27087 17.4798 8.46649C17.9898 7.84539 18.2946 7.04727 18.2946 6.18375C18.2946 4.23522 16.7423 2.61965 14.7836 2.61965C12.9609 2.61965 11.4901 4.01864 11.2947 5.78309C10.9032 3.82645 9.20461 2.33197 7.13585 2.33197C4.77248 2.33197 2.89209 4.28252 2.89209 6.64436C2.89209 7.81929 3.35745 8.89245 4.11612 9.67431C2.2196 10.6328 0.830592 12.4651 0.444118 14.6406L0.444113 14.6406ZM11.3654 6.99949C11.4919 7.54631 11.7428 8.04675 12.0873 8.4664C11.4692 8.82163 10.9264 9.29477 10.4879 9.8543C10.3789 9.79133 10.2681 9.73133 10.1555 9.67441C10.8371 8.97205 11.2819 8.03462 11.3654 6.99949ZM12.0534 11.0983C12.6948 10.2727 13.6791 9.75078 14.7738 9.74787L14.7836 9.74788L14.7929 9.74787C16.3649 9.7524 17.7129 10.8312 18.1358 12.3328H12.9764C12.7144 11.8866 12.4044 11.4726 12.0534 11.0983ZM7.13573 8.95662L7.11874 8.95664C5.90673 8.94719 4.89209 7.93518 4.89209 6.64436C4.89209 5.34742 5.9163 4.33197 7.13585 4.33197C8.35547 4.33197 9.37964 5.34742 9.37964 6.64436C9.37964 7.9352 8.36501 8.94723 7.1529 8.95664L7.13573 8.95662ZM11.8372 14.8796C11.3858 12.6328 9.44907 10.9663 7.15569 10.9567L7.13585 10.9567L7.11589 10.9567C4.82244 10.9662 2.88566 12.6327 2.43426 14.8796H11.8372ZM14.783 7.74786L14.7758 7.74786C13.9643 7.74352 13.2726 7.0646 13.2726 6.18375C13.2726 5.30012 13.9687 4.61965 14.7836 4.61965C15.5985 4.61965 16.2946 5.30011 16.2946 6.18375C16.2946 7.06458 15.603 7.74348 14.7915 7.74786L14.783 7.74786Z" fill="#4FD1C5"/>
</g>
</svg>
