<svg width="20" height="20" viewBox="0 0 20 20" fill="none" xmlns="http://www.w3.org/2000/svg">
<path d="M10 18.8235H1.76471C1.44118 18.8235 1.17647 18.5588 1.17647 18.2353V1.76471C1.17647 1.44118 1.44118 1.17647 1.76471 1.17647H8.82353V4.70588C8.82353 5.67647 9.61765 6.47059 10.5882 6.47059H14.1176V8.23529C14.1176 8.55882 14.3824 8.82353 14.7059 8.82353C15.0294 8.82353 15.2941 8.55882 15.2941 8.23529V5.88235C15.2941 5.88235 15.2882 5.85882 15.2882 5.84706C15.2882 5.79412 15.2765 5.74706 15.2588 5.7C15.2588 5.68824 15.2588 5.67059 15.2529 5.65882C15.2529 5.65294 15.2412 5.64706 15.2412 5.64118C15.2118 5.57647 15.1765 5.51765 15.1235 5.47059L9.82941 0.170588C9.77647 0.117647 9.71765 0.082353 9.65882 0.0529412C9.65294 0.0529412 9.64706 0.0411765 9.64118 0.0411765C9.62941 0.0411765 9.61765 0.0411764 9.6 0.0352941C9.55294 0.017647 9.50588 0.0117647 9.45294 0.00588235C9.44118 0.00588235 9.42941 0 9.41765 0H1.76471C0.794118 0 0 0.794118 0 1.76471V18.2353C0 19.2059 0.794118 20 1.76471 20H10C10.3235 20 10.5882 19.7353 10.5882 19.4118C10.5882 19.0882 10.3235 18.8235 10 18.8235ZM13.2882 5.29412H10.5882C10.2647 5.29412 10 5.02941 10 4.70588V2.00588L13.2882 5.29412ZM14.7059 9.41177C11.7882 9.41177 9.41177 11.7882 9.41177 14.7059C9.41177 17.6235 11.7882 20 14.7059 20C17.6235 20 20 17.6235 20 14.7059C20 11.7882 17.6235 9.41177 14.7059 9.41177ZM18.7765 14.1176H15.2941V10.6353C17.0941 10.8941 18.5176 12.3176 18.7765 14.1176ZM14.7059 18.8235C12.4353 18.8235 10.5882 16.9765 10.5882 14.7059C10.5882 12.6353 12.1235 10.9235 14.1176 10.6353V14.7059C14.1176 15.0294 14.3824 15.2941 14.7059 15.2941H18.7765C18.4882 17.2882 16.7765 18.8235 14.7059 18.8235ZM2.35294 8.82353C2.35294 8.5 2.61765 8.23529 2.94118 8.23529H8.82353C9.14706 8.23529 9.41177 8.5 9.41177 8.82353C9.41177 9.14706 9.14706 9.41177 8.82353 9.41177H2.94118C2.61765 9.41177 2.35294 9.14706 2.35294 8.82353ZM2.35294 5.88235C2.35294 5.55882 2.61765 5.29412 2.94118 5.29412H7.05882C7.38235 5.29412 7.64706 5.55882 7.64706 5.88235C7.64706 6.20588 7.38235 6.47059 7.05882 6.47059H2.94118C2.61765 6.47059 2.35294 6.20588 2.35294 5.88235Z" fill="#4FD1C5"/>
</svg>
