<svg width="20" height="20" viewBox="0 0 20 20" fill="none" xmlns="http://www.w3.org/2000/svg">
<mask id="mask0_474_91" style="mask-type:luminance" maskUnits="userSpaceOnUse" x="0" y="0" width="20" height="20">
<path d="M0 0H20V20H0V0Z" fill="white"/>
</mask>
<g mask="url(#mask0_474_91)">
<path fill-rule="evenodd" clip-rule="evenodd" d="M9.37238 20.4141C8.12685 20.4141 7.11719 19.4043 7.11719 18.1588V18.0309C6.85881 17.938 6.60623 17.833 6.36014 17.7167L6.26976 17.807L6.26967 17.8071C5.84631 18.231 5.27215 18.4682 4.67445 18.4682C4.07719 18.4682 3.50317 18.2311 3.07993 17.8075L3.07978 17.8074L3.0794 17.807L2.19287 16.9205L2.19251 16.9201C1.76904 16.497 1.5318 15.923 1.5318 15.3255C1.5318 14.7278 1.76899 14.1539 2.19251 13.7306L2.19282 13.7303L2.28332 13.6398C2.16695 13.3937 2.06199 13.1412 1.96911 12.8828H1.84117C0.595704 12.8828 -0.414062 11.8731 -0.414062 10.6276V9.37238C-0.414062 8.12691 0.595705 7.11719 1.84117 7.11719H1.96911C2.06199 6.85882 2.16696 6.60625 2.28332 6.36015L2.19287 6.2697C1.7691 5.84642 1.5318 5.27232 1.5318 4.67445C1.5318 4.07701 1.76903 3.50309 2.19246 3.07992L2.19287 3.07951L3.07946 2.19293C3.50268 1.76915 4.07687 1.5318 4.67445 1.5318C5.27208 1.5318 5.84604 1.76893 6.26929 2.19246L6.26971 2.19287L6.36015 2.28332C6.60624 2.16695 6.85882 2.06198 7.11719 1.9691V1.84113C7.11719 0.595644 8.1269 -0.414062 9.37238 -0.414062H10.6276C11.873 -0.414062 12.8828 0.595604 12.8828 1.84113V1.9691C13.1412 2.06198 13.3937 2.16694 13.6398 2.28331L13.7303 2.19282L13.7307 2.19246C14.1539 1.76897 14.7278 1.5318 15.3255 1.5318C15.9231 1.5318 16.4973 1.76917 16.9205 2.19287L17.3638 2.63619L17.807 3.07946L17.807 3.07947C18.2309 3.50275 18.4682 4.0769 18.4682 4.67445C18.4682 5.27225 18.231 5.8464 17.807 6.26976L17.7167 6.36014C17.833 6.60623 17.938 6.85881 18.0309 7.11719H18.1588C19.4043 7.11719 20.4141 8.12691 20.4141 9.37238V10.6276C20.4141 11.8731 19.4043 12.8828 18.1588 12.8828H18.0309C17.938 13.1412 17.833 13.3937 17.7167 13.6398L17.8071 13.7303L17.8075 13.7306C18.2311 14.154 18.4682 14.7279 18.4682 15.3255C18.4682 15.9229 18.231 16.4968 17.8075 16.9201L17.807 16.9205L17.8041 16.9234L17.8025 16.9251L17.8008 16.9268L17.7991 16.9284L17.7974 16.9301L17.7941 16.9335L17.7924 16.9352L17.7907 16.9368L17.7874 16.9402L17.784 16.9436L17.7806 16.9469L17.779 16.9486L17.7773 16.9503L17.7739 16.9537L17.7722 16.9554L17.7705 16.9571L17.7671 16.9604L17.7638 16.9638L17.7609 16.9666L17.7604 16.9672L17.757 16.9706L17.7536 16.974L17.7502 16.9774L17.7485 16.979L17.7468 16.9807L17.7434 16.9841L17.7417 16.9858L17.74 16.9875L17.7383 16.9892L17.7366 16.9909L17.7349 16.9926L17.7332 16.9943L17.7298 16.9977L17.7264 17.0011L17.7247 17.0029L17.723 17.0046L17.7196 17.008L17.7162 17.0114L17.7145 17.0131L17.7128 17.0148L17.7094 17.0182L17.7059 17.0216L17.7042 17.0233L17.7025 17.0251L17.6991 17.0285L17.6957 17.0319L17.694 17.0336L17.6922 17.0353L17.6905 17.037L17.6888 17.0388L17.6854 17.0422L17.6837 17.0439L17.6819 17.0456L17.6785 17.0491L17.6768 17.0508L17.6751 17.0525L17.6716 17.0559L17.6699 17.0577L17.6682 17.0594L17.6647 17.0628L17.663 17.0646L17.6613 17.0663L17.6578 17.0697L17.6544 17.0732L17.6509 17.0766L17.6492 17.0784L17.6475 17.0801L17.644 17.0835L17.6423 17.0853L17.6406 17.087L17.6389 17.0887L17.6371 17.0905L17.6337 17.0939L17.6302 17.0974L17.6285 17.0991L17.6267 17.1008L17.625 17.1026L17.6233 17.1043L17.6198 17.1078L17.6181 17.1095L17.6163 17.1112L17.6129 17.1147L17.6099 17.1176L17.6059 17.1217L17.6056 17.122L17.6024 17.1251L17.599 17.1286L17.5955 17.1321L17.5937 17.1338L17.592 17.1356L17.5885 17.139L17.585 17.1425L17.5833 17.1443L17.5816 17.146L17.5781 17.1495L17.5763 17.1512L17.5746 17.153L17.5728 17.1547L17.5711 17.1565L17.5694 17.1582L17.5676 17.16L17.5641 17.1634L17.5606 17.1669L17.5589 17.1687L17.5571 17.1704L17.5536 17.1739L17.5519 17.1757L17.5502 17.1774L17.5467 17.1809L17.5432 17.1844L17.5397 17.1879L17.5362 17.1914L17.5344 17.1932L17.5327 17.1949L17.5292 17.1984L17.5274 17.2002L17.5257 17.2019L17.5239 17.2037L17.5222 17.2054L17.5186 17.2089L17.5151 17.2124L17.5134 17.2142L17.5116 17.2159L17.5081 17.2194L17.5064 17.2212L17.5046 17.223L17.5029 17.2247L17.5011 17.2265L17.4976 17.23L17.4941 17.2335L17.4923 17.2352L17.4906 17.237L17.4871 17.2405L17.4853 17.2423L17.4835 17.244L17.48 17.2475L17.4765 17.2511L17.473 17.2546L17.4712 17.2563L17.4695 17.2581L17.466 17.2616L17.4642 17.2634L17.4625 17.2651L17.4607 17.2669L17.4589 17.2686L17.4554 17.2722L17.4537 17.2739L17.4519 17.2757L17.4484 17.2792L17.4466 17.281L17.4449 17.2827L17.4413 17.2862L17.4396 17.288L17.4378 17.2898L17.4343 17.2933L17.4308 17.2968L17.4272 17.3003L17.4237 17.3039L17.4202 17.3074L17.4184 17.3091L17.4167 17.3109L17.4149 17.3127L17.4131 17.3144L17.4096 17.3179L17.4079 17.3197L17.4061 17.3215L17.4026 17.325L17.4008 17.3268L17.399 17.3285L17.3955 17.3321L17.392 17.3356L17.3902 17.3373L17.3885 17.3391L17.3849 17.3426L17.3832 17.3444L17.3814 17.3462L17.3797 17.3479L17.3779 17.3497L17.3744 17.3532L17.3726 17.355L17.3708 17.3567L17.3673 17.3603L17.3638 17.3638L17.3603 17.3673L17.3585 17.3691L17.3567 17.3708L17.3532 17.3744L17.3514 17.3761L17.3497 17.3779L17.3479 17.3797L17.3462 17.3814L17.3426 17.3849L17.3391 17.3885L17.3356 17.392L17.3338 17.3938L17.3321 17.3955L17.3285 17.399L17.3268 17.4008L17.325 17.4026L17.3215 17.4061L17.3179 17.4096L17.3144 17.4131L17.3109 17.4167L17.3074 17.4202L17.3056 17.422L17.3039 17.4237L17.3021 17.4255L17.3003 17.4272L17.2968 17.4308L17.295 17.4325L17.2933 17.4343L17.2915 17.4361L17.2898 17.4378L17.2862 17.4413L17.2827 17.4449L17.2792 17.4484L17.2757 17.4519L17.2739 17.4537L17.2722 17.4554L17.2704 17.4572L17.2686 17.4589L17.2651 17.4625L17.2616 17.466L17.2581 17.4695L17.2563 17.4712L17.2546 17.473L17.2528 17.4748L17.2511 17.4765L17.2475 17.48L17.2458 17.4818L17.244 17.4835L17.2405 17.4871L17.2388 17.4888L17.237 17.4906L17.2335 17.4941L17.2317 17.4958L17.23 17.4976L17.2265 17.5011L17.2247 17.5029L17.223 17.5046L17.2212 17.5064L17.2194 17.5081L17.2177 17.5099L17.2159 17.5116L17.2124 17.5151L17.2107 17.5169L17.2089 17.5186L17.2072 17.5204L17.2054 17.5222L17.2019 17.5257L17.1984 17.5292L17.1967 17.5309L17.1949 17.5327L17.1932 17.5344L17.1914 17.5362L17.1879 17.5397L17.1862 17.5414L17.1844 17.5432L17.1827 17.5449L17.1809 17.5467L17.1774 17.5502L17.1739 17.5536L17.1704 17.5571L17.1669 17.5606L17.1635 17.5641L17.16 17.5676L17.1565 17.5711L17.1547 17.5728L17.153 17.5746L17.1512 17.5763L17.1495 17.5781L17.1478 17.5798L17.146 17.5816L17.1443 17.5833L17.1425 17.585L17.139 17.5885L17.1356 17.592L17.1321 17.5955L17.1286 17.599L17.1269 17.6007L17.1251 17.6024L17.1234 17.6042L17.1217 17.6059L17.1187 17.6089L17.1147 17.6129L17.113 17.6146L17.1112 17.6163L17.1095 17.6181L17.1078 17.6198L17.1043 17.6233L17.1026 17.625L17.1008 17.6267L17.0991 17.6285L17.0974 17.6302L17.0939 17.6337L17.0911 17.6364L17.087 17.6406L17.086 17.6416L17.0859 17.6417L17.0853 17.6423L17.0835 17.644C17.08 17.6476 17.08 17.6475 17.0809 17.6467L17.0801 17.6475L17.0784 17.6492L17.0766 17.6509L17.0749 17.6527L17.0732 17.6544L17.0715 17.6561L17.0697 17.6578L17.0663 17.6613L17.0628 17.6647L17.0594 17.6682L17.0577 17.6699L17.0559 17.6716L17.0547 17.6728L17.0525 17.6751L17.0508 17.6768L17.0491 17.6785L17.0473 17.6802L17.0456 17.6819L17.0439 17.6837L17.0422 17.6854L17.0388 17.6888L17.0378 17.6898L17.0353 17.6922L17.0319 17.6957L17.0302 17.6974L17.0285 17.6991L17.0251 17.7025L17.0233 17.7042L17.0216 17.7059L17.0182 17.7094L17.0165 17.7111L17.0148 17.7128L17.0114 17.7162L17.008 17.7196L17.0046 17.723L17.0029 17.7247L17.0011 17.7264L16.9994 17.7281L16.9977 17.7298L16.996 17.7315L16.9943 17.7332L16.9926 17.7349L16.9909 17.7366L16.9892 17.7383L16.9875 17.74L16.9841 17.7434L16.9807 17.7468L16.9774 17.7502L16.9757 17.7519L16.974 17.7536L16.9706 17.757C16.9585 17.769 16.9792 17.7483 16.9672 17.7604L16.9655 17.7621L16.9638 17.7638L16.9621 17.7655L16.9607 17.7669C16.9619 17.7657 16.9607 17.7669 16.9592 17.7684C16.9583 17.7693 16.9573 17.7703 16.9568 17.7708L16.9537 17.7739L16.9503 17.7773L16.9469 17.7806L16.9436 17.784L16.9419 17.7857L16.9402 17.7874L16.9368 17.7907L16.9352 17.7924L16.9335 17.7941L16.9318 17.7958L16.9301 17.7974L16.9268 17.8008L16.9234 17.8042L16.9223 17.8052L16.9217 17.8058L16.9205 17.807L16.9201 17.8075C16.4968 18.2311 15.9228 18.4682 15.3255 18.4682C14.7279 18.4682 14.154 18.2311 13.7307 17.8075L13.7303 17.8071L13.6398 17.7167C13.3938 17.833 13.1412 17.938 12.8828 18.0309V18.1588C12.8828 19.4043 11.8731 20.4141 10.6276 20.4141H9.37238ZM16.9568 17.7708C16.9558 17.7718 16.9561 17.7715 16.9604 17.7671L16.9607 17.7669C16.9601 17.7675 16.959 17.7686 16.9571 17.7705L16.9568 17.7708ZM4.37318 13.3158C4.60558 13.7088 4.54238 14.2092 4.21957 14.532L3.51246 13.8249L4.21956 14.532L4.21955 14.532L4.21952 14.5321L4.21936 14.5322L4.21873 14.5329L4.21625 14.5354L4.20653 14.5451L4.16938 14.5822L4.03468 14.7169L3.60664 15.1449L3.60633 15.1452C3.55879 15.1927 3.5318 15.2575 3.5318 15.3255C3.5318 15.3931 3.55871 15.458 3.60627 15.5055L3.60663 15.5058L4.49414 16.3933L4.49467 16.3938C4.54199 16.4412 4.60673 16.4682 4.67445 16.4682C4.74257 16.4682 4.80728 16.4411 4.85461 16.3938L4.85508 16.3933L5.28307 15.9653L5.41776 15.8306L5.45489 15.7935L5.46461 15.7838L5.46709 15.7813L5.46772 15.7806L5.46788 15.7805L5.46792 15.7804L5.46793 15.7804L6.17504 16.4875L5.46793 15.7804C5.79072 15.4576 6.29112 15.3944 6.68405 15.6268C7.20349 15.9339 7.76881 16.171 8.36702 16.3254C8.80862 16.4393 9.11719 16.8376 9.11719 17.2937V18.1588C9.11719 18.2998 9.23151 18.4141 9.37238 18.4141H10.6276C10.7685 18.4141 10.8828 18.2997 10.8828 18.1588V17.2937C10.8828 16.8376 11.1914 16.4393 11.633 16.3254C12.2312 16.171 12.7965 15.9339 13.3159 15.6268C13.7089 15.3944 14.2093 15.4577 14.5321 15.7805L13.825 16.4875L14.5321 15.7805L14.5321 15.7805L14.5322 15.7805L14.5323 15.7807L14.533 15.7813L14.5354 15.7838L14.5451 15.7935L14.5823 15.8306L14.7169 15.9653L15.1449 16.3933L15.1453 16.3937C15.1927 16.4412 15.2574 16.4682 15.3255 16.4682C15.3932 16.4682 15.458 16.4412 15.5054 16.3938L15.5059 16.3933L15.5092 16.3899L15.5126 16.3866L15.5159 16.3832L15.5193 16.3799L15.5209 16.3782L15.5226 16.3765L15.526 16.3732L15.5294 16.3698L15.5327 16.3664L15.5344 16.3647L15.5361 16.3631L15.5378 16.3614L15.5395 16.3597L15.5428 16.3563L15.5445 16.3546L15.5462 16.3529L15.5496 16.3496L15.553 16.3462L15.5564 16.3428L15.5581 16.3411L15.5597 16.3394L15.5614 16.3377L15.5631 16.336C15.5782 16.3209 15.5515 16.3477 15.5665 16.3326L15.5699 16.3292L15.5716 16.3275L15.5733 16.3258L15.575 16.3241L15.5767 16.3224L15.5801 16.319L15.5818 16.3173L15.5835 16.3156L15.5869 16.3122L15.5886 16.3105L15.5903 16.3088L15.5938 16.3054L15.5972 16.302L15.6006 16.2986L15.604 16.2951L15.6057 16.2934L15.6074 16.2917L15.6091 16.29L15.6108 16.2883L15.6143 16.2849L15.616 16.2832L15.6177 16.2815L15.6194 16.2797L15.6211 16.278L15.6245 16.2746L15.628 16.2712L15.6314 16.2677L15.6349 16.2643L15.6383 16.2609L15.64 16.2591L15.6417 16.2574L15.6452 16.254L15.6469 16.2523L15.6486 16.2505L15.6521 16.2471L15.6538 16.2454L15.6555 16.2436L15.659 16.2402L15.6624 16.2367L15.6659 16.2333L15.6676 16.2316L15.6693 16.2298L15.6711 16.2281L15.6728 16.2264L15.6762 16.2229L15.678 16.2212L15.6797 16.2194L15.6814 16.2177L15.6832 16.216L15.6866 16.2125L15.6901 16.2091L15.6936 16.2056L15.697 16.2021L15.7005 16.1986L15.704 16.1952L15.7074 16.1917L15.7109 16.1882L15.7127 16.1865L15.7144 16.1848L15.7179 16.1813L15.7196 16.1795L15.7214 16.1778L15.7248 16.1743L15.7283 16.1708L15.7301 16.1691L15.7318 16.1673L15.7335 16.1656L15.7353 16.1639L15.7388 16.1604L15.7405 16.1586L15.7423 16.1569L15.7457 16.1534L15.7492 16.1499L15.7527 16.1464L15.7545 16.1447L15.7562 16.1429L15.7597 16.1394L15.7632 16.1359L15.765 16.1342L15.7667 16.1324L15.7702 16.1289L15.7737 16.1254L15.7772 16.1219L15.7789 16.1202L15.7807 16.1184L15.7842 16.1149L15.7877 16.1114L15.7912 16.1079L15.793 16.1062L15.7947 16.1044L15.7965 16.1027L15.7982 16.1009L15.8017 16.0974L15.8052 16.0939L15.8087 16.0904L15.8123 16.0869L15.8158 16.0834L15.8175 16.0816L15.8193 16.0799L15.8228 16.0764L15.8263 16.0728L15.8298 16.0693L15.8316 16.0676L15.8333 16.0658L15.8368 16.0623L15.8404 16.0588L15.8421 16.057L15.8439 16.0553L15.8474 16.0518L15.8491 16.05L15.8509 16.0482L15.8544 16.0447L15.8579 16.0412L15.8615 16.0377L15.8632 16.0359L15.865 16.0342L15.8667 16.0324L15.8685 16.0306L15.872 16.0271L15.8755 16.0236L15.8773 16.0218L15.8791 16.0201L15.8826 16.0166L15.8861 16.013L15.8879 16.0113L15.8896 16.0095L15.8914 16.0077L15.8932 16.006L15.8949 16.0042L15.8967 16.0025L15.8984 16.0007L15.9002 15.9989L15.9037 15.9954L15.9073 15.9919L15.909 15.9901L15.9108 15.9884L15.9125 15.9866L15.9143 15.9848L15.9178 15.9813L15.9196 15.9795L15.9214 15.9778L15.9249 15.9743L15.9284 15.9707L15.9319 15.9672L15.9337 15.9654L15.9355 15.9637L15.939 15.9602L15.9425 15.9566L15.9443 15.9549L15.946 15.9531L15.9496 15.9496L15.9531 15.946L15.9549 15.9443L15.9566 15.9425L15.9602 15.939L15.9637 15.9355L15.9654 15.9337L15.9672 15.9319L15.9707 15.9284L15.9743 15.9249L15.9778 15.9214L15.9795 15.9196L15.9813 15.9178L15.9848 15.9143L15.9866 15.9125L15.9884 15.9108L15.9919 15.9073L15.9954 15.9037L15.9989 15.9002L16.0025 15.8967L16.006 15.8932L16.0095 15.8896L16.0113 15.8879L16.013 15.8861L16.0148 15.8844L16.0166 15.8826L16.0201 15.8791L16.0236 15.8755L16.0254 15.8738L16.0271 15.872L16.0306 15.8685L16.0324 15.8667L16.0342 15.865L16.0377 15.8615L16.0412 15.8579L16.0447 15.8544L16.0465 15.8527L16.0482 15.8509L16.05 15.8491L16.0518 15.8474L16.0553 15.8439L16.057 15.8421L16.0588 15.8404L16.0623 15.8368L16.0658 15.8333L16.0676 15.8316L16.0693 15.8298L16.0728 15.8263L16.0764 15.8228L16.0781 15.821L16.0799 15.8193L16.0834 15.8158L16.0851 15.814L16.0869 15.8123L16.0886 15.8105L16.0904 15.8087L16.0922 15.807L16.0939 15.8052L16.0974 15.8017L16.0992 15.8L16.1009 15.7982L16.1027 15.7965L16.1044 15.7947L16.1079 15.7912L16.1114 15.7877L16.1132 15.786L16.1149 15.7842L16.1184 15.7807L16.1202 15.779L16.1219 15.7772L16.1237 15.7755L16.1254 15.7737L16.1289 15.7702L16.1324 15.7667L16.1359 15.7632L16.1377 15.7615L16.1394 15.7597L16.1429 15.7562L16.1447 15.7545L16.1464 15.7527L16.1499 15.7492L16.1534 15.7457L16.1569 15.7423L16.1586 15.7405L16.1604 15.7388L16.1639 15.7353L16.1673 15.7318L16.1708 15.7283L16.1743 15.7248L16.1778 15.7214L16.1795 15.7196L16.1813 15.7179L16.1848 15.7144L16.1882 15.7109L16.19 15.7092L16.1917 15.7074L16.1952 15.704L16.1987 15.7005L16.2021 15.697L16.2039 15.6953L16.2056 15.6936L16.2091 15.6901L16.2108 15.6884L16.2125 15.6866L16.216 15.6832L16.2194 15.6797L16.2229 15.6762L16.2264 15.6728L16.2298 15.6693L16.2316 15.6676L16.2333 15.6659L16.235 15.6641L16.2367 15.6624L16.2385 15.6607L16.2402 15.659L16.2436 15.6555L16.2471 15.6521L16.2488 15.6503L16.2505 15.6486L16.254 15.6452L16.2557 15.6435L16.2574 15.6417L16.2609 15.6383L16.2643 15.6349L16.2677 15.6314L16.2694 15.6297L16.2712 15.628L16.2746 15.6245L16.278 15.6211L16.2815 15.6177L16.2849 15.6143L16.2883 15.6108L16.29 15.6091L16.2917 15.6074L16.2951 15.604L16.2986 15.6006L16.3003 15.5989L16.302 15.5972L16.3054 15.5938L16.3071 15.592L16.3088 15.5903L16.3122 15.5869L16.3139 15.5852L16.3156 15.5835L16.319 15.5801L16.3207 15.5784L16.3224 15.5767L16.3241 15.575L16.3258 15.5733L16.3292 15.5699L16.3326 15.5665L16.3343 15.5648L16.336 15.5631L16.3394 15.5597L16.3428 15.5564L16.3445 15.5547L16.3462 15.553L16.3496 15.5496L16.3529 15.5462L16.3546 15.5445L16.3563 15.5428L16.358 15.5411L16.3597 15.5395L16.3631 15.5361L16.3647 15.5344L16.3664 15.5327L16.3698 15.5294L16.3732 15.526L16.3765 15.5226L16.3782 15.5209L16.3799 15.5193L16.3832 15.5159L16.3866 15.5126L16.3899 15.5092L16.3933 15.5059L16.3938 15.5054C16.4412 15.458 16.4682 15.3932 16.4682 15.3255C16.4682 15.2574 16.4412 15.1927 16.3937 15.1453L16.3933 15.1449L15.9653 14.7169L15.8306 14.5822L15.7934 14.545L15.7837 14.5353L15.7812 14.5328L15.7806 14.5322L15.7804 14.532L15.7804 14.532L15.7804 14.532C15.4576 14.2092 15.3944 13.7088 15.6268 13.3159C15.9339 12.7965 16.171 12.2312 16.3254 11.6329C16.4394 11.1913 16.8377 10.8828 17.2937 10.8828H18.1588C18.2998 10.8828 18.4141 10.7685 18.4141 10.6276V9.37238C18.4141 9.23152 18.2998 9.11719 18.1588 9.11719H17.2937C16.8377 9.11719 16.4394 8.80867 16.3254 8.36711C16.171 7.76877 15.9339 7.20347 15.6268 6.68405C15.3944 6.29112 15.4576 5.79072 15.7804 5.46793L16.4875 6.17504L15.7804 5.46792L15.7805 5.46788L15.7806 5.46772L15.7813 5.46709L15.7838 5.46461L15.7935 5.45489L15.8306 5.41776L15.9653 5.28307L16.3933 4.85508L16.3938 4.85461C16.4412 4.80727 16.4682 4.74259 16.4682 4.67445C16.4682 4.60678 16.4412 4.54203 16.3938 4.49461L16.3932 4.49409L15.9496 4.05041L15.5058 3.60663L15.5055 3.60627C15.458 3.55872 15.3931 3.5318 15.3255 3.5318C15.2575 3.5318 15.1927 3.55879 15.1452 3.60633L15.1449 3.60668L14.717 4.03463L14.5823 4.16931L14.5452 4.20644L14.5355 4.21615L14.533 4.21864L14.5324 4.21926L14.5322 4.21942L14.5322 4.21947L13.825 3.51246L14.5322 4.21947C14.2094 4.54235 13.7089 4.60561 13.3159 4.3732C12.7965 4.06602 12.2312 3.82897 11.6329 3.67456C11.1914 3.56061 10.8828 3.16233 10.8828 2.70629V1.84113C10.8828 1.70025 10.7685 1.58594 10.6276 1.58594H9.37238C9.23147 1.58594 9.11719 1.70021 9.11719 1.84113V2.70629C9.11719 3.16233 8.80865 3.56061 8.36707 3.67456C7.76879 3.82897 7.20347 4.06602 6.68409 4.3732C6.29114 4.6056 5.79068 4.54236 5.46788 4.21952L6.17504 3.51246L5.46788 4.21952L5.46787 4.21951L5.46783 4.21947L5.46767 4.21931L5.46705 4.21868L5.46457 4.2162L5.45485 4.20649L5.41772 4.16935L5.28304 4.03466L4.85508 3.60668L4.85467 3.60627C4.80726 3.55881 4.7425 3.5318 4.67445 3.5318C4.60681 3.5318 4.54201 3.55874 4.49461 3.60621L4.49419 3.60663L3.60668 4.49414L3.60627 4.49455C3.55871 4.54205 3.5318 4.60685 3.5318 4.67445C3.5318 4.74252 3.55879 4.80725 3.60627 4.85467L3.60668 4.85508L4.03466 5.28304L4.16935 5.41772L4.20649 5.45485L4.2162 5.46457L4.21868 5.46705L4.21931 5.46767L4.21947 5.46783L4.21951 5.46787L4.21952 5.46788L3.51246 6.17504L4.21952 5.46789C4.54236 5.79068 4.6056 6.29114 4.3732 6.68409C4.06604 7.20345 3.829 7.76874 3.67455 8.36711C3.56058 8.80867 3.16232 9.11719 2.70629 9.11719H1.84117C1.70023 9.11719 1.58594 9.23152 1.58594 9.37238V10.6276C1.58594 10.7685 1.70023 10.8828 1.84117 10.8828H2.70629C3.16231 10.8828 3.56057 11.1913 3.67455 11.6329C3.82901 12.2312 4.06604 12.7966 4.37318 13.3158ZM10.0002 14.7656C7.36956 14.7656 5.23454 12.6305 5.23454 9.99999C5.23454 7.36938 7.36956 5.23436 10.0002 5.23436C12.6308 5.23436 14.7658 7.36938 14.7658 9.99999C14.7658 12.6305 12.6308 14.7656 10.0002 14.7656ZM7.23454 9.99999C7.23454 11.526 8.47414 12.7656 10.0002 12.7656C11.5262 12.7656 12.7658 11.526 12.7658 9.99999C12.7658 8.47395 11.5262 7.23436 10.0002 7.23436C8.47413 7.23436 7.23454 8.47395 7.23454 9.99999Z" fill="white"/>
</g>
</svg>
