<svg width="18" height="18" viewBox="0 0 18 18" fill="none" xmlns="http://www.w3.org/2000/svg">
<path d="M11.6831 9.05713L8.14154 12.5987L6.31689 10.774C6.07275 10.5299 5.67725 10.5299 5.43311 10.774C5.18896 11.0182 5.18896 11.4137 5.43311 11.6578L7.69965 13.9244C7.82172 14.0464 7.98163 14.1075 8.14154 14.1075C8.30145 14.1075 8.46136 14.0464 8.58344 13.9244L12.5669 9.94092C12.811 9.69678 12.811 9.30127 12.5669 9.05713C12.3228 8.81299 11.9272 8.81299 11.6831 9.05713Z" fill="white"/>
<path d="M14.625 1.47498H13.6875V0.875C13.6875 0.529846 13.4077 0.25 13.0625 0.25C12.7173 0.25 12.4375 0.529846 12.4375 0.875V1.47498H5.5625V0.875C5.5625 0.529846 5.28265 0.25 4.9375 0.25C4.59235 0.25 4.3125 0.529846 4.3125 0.875V1.47498H3.375C1.65198 1.47498 0.25 2.87695 0.25 4.59998V14.625C0.25 16.348 1.65198 17.75 3.375 17.75H14.625C16.348 17.75 17.75 16.348 17.75 14.625V4.59998C17.75 2.87695 16.348 1.47498 14.625 1.47498ZM1.5 4.59998C1.5 3.56604 2.34106 2.72498 3.375 2.72498H4.3125V3.32465C4.3125 3.6698 4.59235 3.94965 4.9375 3.94965C5.28265 3.94965 5.5625 3.6698 5.5625 3.32465V2.72498H12.4375V3.32465C12.4375 3.6698 12.7173 3.94965 13.0625 3.94965C13.4077 3.94965 13.6875 3.6698 13.6875 3.32465V2.72498H14.625C15.6589 2.72498 16.5 3.56604 16.5 4.59998V5.23108H1.5V4.59998ZM14.625 16.5H3.375C2.34106 16.5 1.5 15.6589 1.5 14.625V6.48108H16.5V14.625C16.5 15.6589 15.6589 16.5 14.625 16.5Z" fill="white"/>
</svg>
